<?xml version="1.0" encoding="iso-8859-1"?>
<!-- Generator: Adobe Illustrator 19.0.0, SVG Export Plug-In . SVG Version: 6.00 Build 0)  -->
<svg xmlns="http://www.w3.org/2000/svg" xmlns:xlink="http://www.w3.org/1999/xlink" version="1.1" id="Layer_1" x="0px" y="0px" viewBox="0 0 511.995 511.995" style="enable-background:new 0 0 511.995 511.995;" xml:space="preserve">
<rect x="208.915" y="179.701" transform="matrix(0.7071 -0.7071 0.7071 0.7071 -149.0299 250.7533)" style="fill:#CFDCE5;" width="38.512" height="251.142"/>
<polygon style="fill:#AAC1CE;" points="180.422,230.325 142.934,247.293 125.758,230.125 152.99,202.893 "/>
<rect x="250.041" y="279.039" transform="matrix(0.7071 -0.7071 0.7071 0.7071 -166.0883 291.889)" style="fill:#415E72;" width="38.512" height="134.783"/>
<g>
	
		<rect x="67.719" y="148.607" transform="matrix(0.7071 -0.7071 0.7071 0.7071 -100.6217 133.8423)" style="fill:#CFDCE5;" width="87.063" height="79.551"/>
	<path style="fill:#CFDCE5;" d="M2.262,241.117l17.224-17.224c3.016-3.016,7.912-3.016,10.928,0l45.32,45.32   c3.016,3.016,3.016,7.912,0,10.928L58.51,297.365c-3.016,3.016-7.912,3.016-10.928,0l-45.32-45.32   C-0.754,249.029-0.754,244.133,2.262,241.117z"/>
</g>
<g>
	<path style="fill:#AAC1CE;" d="M126.638,142.205l18.872-18.872c17-17,44.568-17,61.568,0l0,0l0,0l0,0l-49.656,49.656l0,0   L126.638,142.205L126.638,142.205z"/>
	<path style="fill:#AAC1CE;" d="M29.598,223.045c13.08-3.576,24.904-10.712,34.176-20.608l19.2,19.2L55.59,249.069L29.598,223.045z"/>
	<path style="fill:#AAC1CE;" d="M76.582,270.061c3.576-13.08,10.712-24.904,20.608-34.176l-19.2-19.2l-27.432,27.352L76.582,270.061   z"/>
</g>
<rect x="348.541" y="98.955" transform="matrix(0.7071 -0.7071 0.7071 0.7071 -43.1651 343.1373)" style="fill:#CFDCE5;" width="88.159" height="249.438"/>
<rect x="391.603" y="81.104" transform="matrix(0.7071 -0.7071 0.7071 0.7071 -25.3162 350.5278)" style="fill:#AEC3CE;" width="37.728" height="249.438"/>
<rect x="245.422" y="288.275" transform="matrix(0.7071 0.7071 -0.7071 0.7071 325.1251 -86.5965)" style="fill:#E04F5F;" width="43.344" height="121.775"/>
<rect x="307.696" y="265.073" transform="matrix(0.7071 -0.7071 0.7071 0.7071 -96.5672 321.0118)" style="fill:#527C93;" width="63.031" height="24"/>
<rect x="281.185" y="295.388" transform="matrix(0.7071 0.7071 -0.7071 0.7071 305.9848 -132.8734)" style="fill:#E04F5F;" width="64.399" height="15.064"/>
<g style="opacity:0.25;">
	<rect x="346.402" y="253.524" transform="matrix(0.7071 0.7071 -0.7071 0.7071 287.3621 -177.8809)" width="24" height="8.824"/>
</g>
<g>
</g>
<g>
</g>
<g>
</g>
<g>
</g>
<g>
</g>
<g>
</g>
<g>
</g>
<g>
</g>
<g>
</g>
<g>
</g>
<g>
</g>
<g>
</g>
<g>
</g>
<g>
</g>
<g>
</g>
</svg>
