<?xml version="1.0" encoding="iso-8859-1"?>
<!-- Generator: Adobe Illustrator 19.0.0, SVG Export Plug-In . SVG Version: 6.00 Build 0)  -->
<svg xmlns="http://www.w3.org/2000/svg" xmlns:xlink="http://www.w3.org/1999/xlink" version="1.1" id="Layer_1" x="0px" y="0px" viewBox="0 0 512 512" style="enable-background:new 0 0 512 512;" xml:space="preserve">
<path style="fill:#FFD07D;" d="M4.528,58.984V512h453.344L4.528,58.984z M86.232,264.072l166.52,166.4H86.232V264.072z"/>
<rect x="301.544" y="123.168" style="fill:#CFDCE5;" width="59.624" height="388.832"/>
<polygon style="fill:#AAC1CE;" points="361.168,183.224 301.544,160.76 301.544,123.168 361.168,123.168 "/>
<rect x="301.544" y="303.328" style="fill:#415E72;" width="59.624" height="208.64"/>
<g>
	<rect x="263.952" style="fill:#CFDCE5;" width="134.792" height="123.168"/>
	<path style="fill:#CFDCE5;" d="M154.304,0h37.712c6.608,0,11.968,5.36,11.968,11.968V111.2c0,6.608-5.36,11.968-11.968,11.968   h-37.712c-6.608,0-11.968-5.36-11.968-11.968V11.968C142.336,5.36,147.688,0,154.304,0z"/>
</g>
<g>
	<path style="fill:#AAC1CE;" d="M398.752,27.888h41.32c37.224,0,67.4,30.176,67.4,67.4l0,0l0,0h-108.72l0,0V27.888L398.752,27.888z"/>
	<path style="fill:#AAC1CE;" d="M203.976,10.112c18.24,10.4,39.008,15.544,60,14.856v42.12h-60L203.976,10.112L203.976,10.112z"/>
	<path style="fill:#AAC1CE;" d="M203.976,113.056c18.24-10.4,39.008-15.544,60-14.856V56.072h-60L203.976,113.056L203.976,113.056z"/>
</g>
<g>
</g>
<g>
</g>
<g>
</g>
<g>
</g>
<g>
</g>
<g>
</g>
<g>
</g>
<g>
</g>
<g>
</g>
<g>
</g>
<g>
</g>
<g>
</g>
<g>
</g>
<g>
</g>
<g>
</g>
</svg>
