<?xml version="1.0" encoding="iso-8859-1"?>
<!-- Generator: Adobe Illustrator 19.0.0, SVG Export Plug-In . SVG Version: 6.00 Build 0)  -->
<svg xmlns="http://www.w3.org/2000/svg" xmlns:xlink="http://www.w3.org/1999/xlink" version="1.1" id="Layer_1" x="0px" y="0px" viewBox="0 0 512 512" style="enable-background:new 0 0 512 512;" xml:space="preserve">
<circle style="fill:#FFD07D;" cx="421.128" cy="102.148" r="90.84"/>
<polygon style="fill:#E04F5F;" points="187.352,108.676 31.968,219.812 31.968,256.396 187.352,145.26 342.744,256.396   342.744,219.812 "/>
<polyline style="fill:#FFFFFF;" points="57.984,467.204 57.984,269.916 187.352,176.756 316.728,269.916 316.728,467.204 "/>
<polygon style="fill:#C7D5DD;" points="320.728,467.196 312.728,467.196 312.728,271.964 187.36,181.684 61.984,271.964   61.984,467.196 53.984,467.196 53.984,267.868 187.36,171.82 320.728,267.868 "/>
<rect x="152.16" y="363.436" style="fill:#415E72;" width="70.384" height="103.752"/>
<rect x="226.48" y="282.316" style="fill:#FFFFFF;" width="45.512" height="45.512"/>
<g>
	<path style="fill:#CFDCE5;" d="M267.968,286.3v37.512h-37.52V286.3H267.968 M275.968,278.3h-53.52v53.512h53.52V278.3z"/>
	<rect x="245.216" y="278.3" style="fill:#CFDCE5;" width="8" height="53.512"/>
	<rect x="222.464" y="301.06" style="fill:#CFDCE5;" width="53.512" height="8"/>
</g>
<rect x="102.64" y="282.316" style="fill:#FFFFFF;" width="45.512" height="45.512"/>
<g>
	<path style="fill:#CFDCE5;" d="M144.16,286.3v37.512h-37.52V286.3H144.16 M152.16,278.3H98.64v53.512h53.52V278.3z"/>
	<rect x="121.4" y="278.3" style="fill:#CFDCE5;" width="8" height="53.512"/>
	<rect x="98.64" y="301.06" style="fill:#CFDCE5;" width="53.512" height="8"/>
</g>
<rect y="467.196" style="fill:#32BEA6;" width="512" height="33.496"/>
<g>
</g>
<g>
</g>
<g>
</g>
<g>
</g>
<g>
</g>
<g>
</g>
<g>
</g>
<g>
</g>
<g>
</g>
<g>
</g>
<g>
</g>
<g>
</g>
<g>
</g>
<g>
</g>
<g>
</g>
</svg>
