<?xml version="1.0" encoding="iso-8859-1"?>
<!-- Generator: Adobe Illustrator 19.0.0, SVG Export Plug-In . SVG Version: 6.00 Build 0)  -->
<svg xmlns="http://www.w3.org/2000/svg" xmlns:xlink="http://www.w3.org/1999/xlink" version="1.1" id="Layer_1" x="0px" y="0px" viewBox="0 0 512 512" style="enable-background:new 0 0 512 512;" xml:space="preserve">
<rect x="183.976" y="357.984" style="fill:#415E72;" width="144.08" height="108.336"/>
<polygon style="fill:#333333;" points="183.976,376.72 269.688,376.72 183.976,434.624 "/>
<g>
	<path style="fill:#C7D5DD;" d="M369.52,487.28H142.496c-8.824-0.024-15.976-7.176-16-16l0,0c0.024-8.824,7.176-15.976,16-16   h227.008c8.824,0.024,15.976,7.176,16,16l0,0C385.504,480.112,378.352,487.272,369.52,487.28z"/>
	<path style="fill:#C7D5DD;" d="M480,376.72H32c-17.648-0.056-31.944-14.352-32-32v-288c0.056-17.648,14.352-31.944,32-32h448   c17.648,0.056,31.944,14.352,32,32v288C511.944,362.368,497.648,376.664,480,376.72z"/>
</g>
<rect x="21.968" y="46.656" style="fill:#FFFFFF;" width="468.08" height="308.128"/>
<polygon style="fill:#2C3E50;" points="371.72,199.56 287.712,91.84 173.584,161.736 169.416,154.904 289.632,81.296   378.032,194.64 "/>
<circle style="fill:#415E72;" cx="287.128" cy="94.64" r="24.688"/>
<circle style="fill:#517A91;" cx="287.128" cy="94.64" r="12.864"/>
<rect x="87.398" y="166.1" transform="matrix(-0.9823 -0.1873 0.1873 -0.9823 457.3721 578.1109)" style="fill:#E04F5F;" width="337.199" height="202.695"/>
<g>
	<path style="fill:#FFFFFF;" d="M136.224,263.368c4.56,3.832,10.008,6.456,15.848,7.632c8.096,1.6,13.336-1.36,14.4-6.992   c1.008-5.232-1.872-8.976-10.072-13.848c-10.592-6.296-16.696-13.744-14.776-23.688c2.168-11.272,13.256-18.064,28.216-15.2   c5.76,0.952,11.216,3.24,15.928,6.68l-4.968,9.576c-3.824-3.016-8.32-5.048-13.112-5.928c-8-1.536-12.296,2.088-13.072,6.088   c-1.024,5.328,2.496,8.56,11.024,13.928c11.128,6.824,15.792,14,13.872,23.936c-2.144,11.072-12.4,19.08-30.232,15.632   c-6.48-1.184-12.584-3.896-17.816-7.896L136.224,263.368z"/>
	<path style="fill:#FFFFFF;" d="M255.136,263.976c-4.472,23.2-21.064,33.672-40.128,30c-19.472-3.768-28.896-20.992-24.984-41.288   c4.096-21.208,20.304-33.6,39.776-29.84C249.992,226.76,258.928,244.32,255.136,263.976z M203.384,255.056   c-2.704,14.04,2.2,26.576,14.296,28.912s21.24-7.592,24-22.048c2.512-13.016-1.6-26.552-14.176-28.992s-21.368,7.896-24.12,22.144   L203.384,255.056L203.384,255.056z"/>
	<path style="fill:#FFFFFF;" d="M272.496,232.272l12.6,2.4l-11.288,58.512l28.376,5.48l-2.032,10.552l-40.952-7.88L272.496,232.272z   "/>
	<path style="fill:#FFFFFF;" d="M322.816,242.936c6.84,0.28,13.648,1.096,20.36,2.448c10.2,1.136,19.656,5.904,26.64,13.432   c6.168,7.736,8.328,17.92,5.848,27.496c-1.448,10.376-7.304,19.632-16.056,25.392c-10.248,5.128-22.008,6.328-33.08,3.392   c-5.68-1.056-11.288-2.456-16.8-4.2L322.816,242.936z M324.128,303.88c2.256,0.728,4.56,1.28,6.904,1.656   c12.704,3.952,26.216-3.144,30.168-15.848c0.56-1.8,0.904-3.664,1.032-5.552c3.552-11.8-3.128-24.256-14.936-27.808   c-1.592-0.48-3.24-0.784-4.896-0.896c-2.872-0.624-5.808-0.936-8.752-0.936L324.128,303.88z"/>
</g>
<g>
</g>
<g>
</g>
<g>
</g>
<g>
</g>
<g>
</g>
<g>
</g>
<g>
</g>
<g>
</g>
<g>
</g>
<g>
</g>
<g>
</g>
<g>
</g>
<g>
</g>
<g>
</g>
<g>
</g>
</svg>
