<?xml version="1.0" encoding="iso-8859-1"?>
<!-- Generator: Adobe Illustrator 19.0.0, SVG Export Plug-In . SVG Version: 6.00 Build 0)  -->
<svg xmlns="http://www.w3.org/2000/svg" xmlns:xlink="http://www.w3.org/1999/xlink" version="1.1" id="Layer_1" x="0px" y="0px" viewBox="0 0 512 512" style="enable-background:new 0 0 512 512;" xml:space="preserve">
<polygon style="fill:#AAC1CE;" points="221.888,0 74.304,105.56 74.304,129.568 221.888,24.016 369.472,129.568 369.472,105.56 "/>
<polygon style="fill:#E04F5F;" points="99.016,512 99.016,132.84 221.888,44.352 344.768,132.84 344.768,512 "/>
<g>
	<rect x="140.832" y="145.72" style="fill:#FFFFFF;" width="56.952" height="56.952"/>
	<rect x="246" y="145.72" style="fill:#FFFFFF;" width="56.952" height="56.952"/>
</g>
<path style="fill:#32BEA6;" d="M325.152,236.744c-42.288,44.44-112.544,34.4-112.544,34.4v120.432  C212.616,462.536,325.152,512,325.152,512s112.544-49.464,112.544-120.424V271.152C437.696,271.152,367.448,281.184,325.152,236.744  z"/>
<polygon style="fill:#FFFFFF;" points="320.272,430.608 271.512,389.552 281.816,377.32 317.24,407.144 376.248,323.472   389.328,332.688 "/>
<g>
</g>
<g>
</g>
<g>
</g>
<g>
</g>
<g>
</g>
<g>
</g>
<g>
</g>
<g>
</g>
<g>
</g>
<g>
</g>
<g>
</g>
<g>
</g>
<g>
</g>
<g>
</g>
<g>
</g>
</svg>
