<?xml version="1.0" encoding="iso-8859-1"?>
<!-- Generator: Adobe Illustrator 19.0.0, SVG Export Plug-In . SVG Version: 6.00 Build 0)  -->
<svg xmlns="http://www.w3.org/2000/svg" xmlns:xlink="http://www.w3.org/1999/xlink" version="1.1" id="Layer_1" x="0px" y="0px" viewBox="0 0 512 512" style="enable-background:new 0 0 512 512;" xml:space="preserve">
<rect x="184.224" y="383.123" style="fill:#415E72;" width="143.631" height="107.999"/>
<polygon style="fill:#333333;" points="184.2,401.792 269.645,401.792 184.2,459.516 "/>
<g>
	<path style="fill:#C7D5DD;" d="M369.166,512H142.85c-8.797-0.024-15.926-7.154-15.95-15.95l0,0   c0.024-8.797,7.154-15.926,15.95-15.95H369.15c8.797,0.024,15.926,7.154,15.95,15.95l0,0   C385.101,504.854,377.971,511.992,369.166,512z"/>
	<path style="fill:#C7D5DD;" d="M479.302,401.792H32.698c-17.593-0.056-31.844-14.307-31.9-31.9V82.789   c0.056-17.593,14.307-31.844,31.9-31.9h446.604c17.593,0.056,31.845,14.307,31.9,31.9v287.103   C511.147,387.485,496.895,401.737,479.302,401.792z"/>
</g>
<g>
	<rect x="22.697" y="72.757" style="fill:#FFFFFF;" width="466.622" height="307.168"/>
	<path style="fill:#FFFFFF;" d="M256,335.934c-15.368-7.178-135.162-65.396-135.162-144.508V46.981   c3.828,0.343,9.897,0.742,17.545,0.742c28.264,0,80.477-5.583,117.593-42.045c37.108,36.494,89.321,42.045,117.585,42.045   c7.672,0,13.741-0.399,17.545-0.742v144.421C391.154,270.594,271.368,328.805,256,335.934z"/>
</g>
<path style="fill:#32BEA6;" d="M256,11.165c37.898,35.09,89.401,40.521,117.585,40.521c5.351,0,9.953-0.191,13.558-0.423v140.138  c0,74.352-110.742,130.4-131.174,140.106c-20.4-9.682-131.142-65.731-131.142-140.106V51.28c3.637,0.231,8.238,0.423,13.558,0.423  C166.599,51.71,218.102,46.255,256,11.165 M256,0c-36.023,37.842-88.444,43.735-117.585,43.735  c-7.194,0.056-14.387-0.343-21.533-1.204v148.871c0,87.726,139.149,148.895,139.149,148.895s139.117-61.129,139.117-148.895V42.531  c-7.146,0.861-14.339,1.26-21.533,1.204C344.452,43.735,292.023,37.842,256,0z"/>
<path style="fill:#415E72;" d="M256,48.975c-37.236,39.134-99.09,30.305-99.09,30.305v106.069c0,62.485,99.09,106.069,99.09,106.069  s99.09-43.552,99.09-106.069V79.272C355.09,79.272,293.236,88.109,256,48.975z"/>
<polygon style="fill:#FFFFFF;" points="245.744,220.479 196.57,179.399 206.802,167.15 242.69,197.144 299.52,116.556   312.559,125.743 "/>
<g>
</g>
<g>
</g>
<g>
</g>
<g>
</g>
<g>
</g>
<g>
</g>
<g>
</g>
<g>
</g>
<g>
</g>
<g>
</g>
<g>
</g>
<g>
</g>
<g>
</g>
<g>
</g>
<g>
</g>
</svg>
