<?xml version="1.0" encoding="iso-8859-1"?>
<!-- Generator: Adobe Illustrator 19.0.0, SVG Export Plug-In . SVG Version: 6.00 Build 0)  -->
<svg xmlns="http://www.w3.org/2000/svg" xmlns:xlink="http://www.w3.org/1999/xlink" version="1.1" id="Layer_1" x="0px" y="0px" viewBox="0 0 511.996 511.996" style="enable-background:new 0 0 511.996 511.996;" xml:space="preserve">
<rect x="40.331" y="301.723" style="fill:#29414F;" width="243.227" height="45.328"/>
<path style="fill:#AAC1CE;" d="M245.821,181.044h-27.197V83.076c0-31.319-25.385-56.705-56.713-56.705s-56.705,25.385-56.705,56.705  v97.967H78.058V83.076c0.459-46.335,38.388-83.531,84.723-83.072c45.699,0.451,82.629,37.382,83.072,83.072L245.821,181.044z"/>
<g style="opacity:0.25;">
	<rect x="78.026" y="152.357" style="fill:#29414F;" width="27.189" height="10.877"/>
</g>
<g style="opacity:0.25;">
	<rect x="218.665" y="152.357" style="fill:#29414F;" width="27.189" height="10.877"/>
</g>
<rect x="52.866" y="163.234" style="fill:#415E72;" width="218.107" height="138.497"/>
<g>
	<circle style="fill:#FFFFFF;" cx="161.904" cy="235.574" r="27.213"/>
	<rect x="150.318" y="250.227" style="fill:#FFFFFF;" width="23.204" height="49.724"/>
</g>
<path style="fill:#32BEA6;" d="M357.862,233.642c-42.768,44.942-113.804,34.797-113.804,34.797v121.774  c0,71.76,113.804,121.782,113.804,121.782s113.804-50.014,113.804-121.782V268.439C471.666,268.439,400.63,278.584,357.862,233.642z  "/>
<path style="fill:#415E72;" d="M357.862,273.705c-30.458,32.004-81.051,24.782-81.051,24.782v86.719  c0,51.109,81.043,86.728,81.043,86.728s81.051-35.619,81.051-86.728v-86.719C438.905,298.486,388.32,305.708,357.862,273.705z"/>
<path style="fill:#FFFFFF;" d="M369.278,370.883v-6.844c11.143-6.304,15.056-20.45,8.752-31.593  c-6.304-11.143-20.45-15.056-31.593-8.752c-11.143,6.304-15.056,20.45-8.752,31.593c2.069,3.655,5.096,6.683,8.752,8.752v6.844  c-21.601,1.014-32.583,15.619-32.583,25.434v8.051h88.016v-8.051C401.87,386.494,390.88,371.889,369.278,370.883z"/>
<g>
</g>
<g>
</g>
<g>
</g>
<g>
</g>
<g>
</g>
<g>
</g>
<g>
</g>
<g>
</g>
<g>
</g>
<g>
</g>
<g>
</g>
<g>
</g>
<g>
</g>
<g>
</g>
<g>
</g>
</svg>
