<?xml version="1.0" encoding="iso-8859-1"?>
<!-- Generator: Adobe Illustrator 19.0.0, SVG Export Plug-In . SVG Version: 6.00 Build 0)  -->
<svg xmlns="http://www.w3.org/2000/svg" xmlns:xlink="http://www.w3.org/1999/xlink" version="1.1" id="Layer_1" x="0px" y="0px" viewBox="0 0 512 512" style="enable-background:new 0 0 512 512;" xml:space="preserve">
<rect x="183.96" y="357.984" style="fill:#415E72;" width="144.08" height="108.336"/>
<polygon style="fill:#333333;" points="183.96,376.72 269.664,376.72 183.96,434.624 "/>
<g>
	<path style="fill:#C7D5DD;" d="M369.496,487.28H142.48c-8.824-0.024-15.976-7.176-16-16l0,0c0.024-8.824,7.176-15.976,16-16h227   c8.824,0.024,15.976,7.176,16,16l0,0C385.48,480.112,378.328,487.272,369.496,487.28z"/>
	<path style="fill:#C7D5DD;" d="M480,376.72H32c-17.648-0.056-31.944-14.352-32-32v-288c0.056-17.648,14.352-31.944,32-32h448   c17.648,0.056,31.944,14.352,32,32v288C511.944,362.368,497.648,376.664,480,376.72z"/>
</g>
<rect x="21.944" y="46.656" style="fill:#FFFFFF;" width="468.08" height="308.128"/>
<polygon style="fill:#415E72;" points="245.184,139.912 177.408,188.392 177.408,209.392 245.184,160.92 312.96,209.392   312.96,188.392 "/>
<polygon style="fill:#CFDCE5;" points="188.752,301.336 188.752,215.288 245.184,174.656 301.616,215.288 301.616,301.336 "/>
<path style="fill:#E04F5F;" d="M393.032,260.8l-7.2-9.504c-5.296-6.928-51.64-68.8-51.64-99.616  c0-36.976,23.08-60.872,58.832-60.872s58.832,23.896,58.832,60.872c0,30.776-46.344,92.64-51.592,99.616L393.032,260.8z"/>
<circle style="fill:#FFFFFF;" cx="392.96" cy="152.08" r="19.056"/>
<polygon style="fill:#415E72;" points="110.256,158 60.136,193.848 60.136,209.376 110.256,173.528 160.376,209.376   160.376,193.848 "/>
<g>
	<polygon style="fill:#AAC1CE;" points="68.528,277.368 68.528,213.736 110.256,183.688 151.984,213.736 151.984,277.368  "/>
	<rect x="21.944" y="273.36" style="fill:#AAC1CE;" width="166.808" height="8"/>
</g>
<rect x="156.176" y="297.36" style="fill:#CFDCE5;" width="178.024" height="8"/>
<g>
</g>
<g>
</g>
<g>
</g>
<g>
</g>
<g>
</g>
<g>
</g>
<g>
</g>
<g>
</g>
<g>
</g>
<g>
</g>
<g>
</g>
<g>
</g>
<g>
</g>
<g>
</g>
<g>
</g>
</svg>
