<?xml version="1.0" encoding="iso-8859-1"?>
<!-- Generator: Adobe Illustrator 19.0.0, SVG Export Plug-In . SVG Version: 6.00 Build 0)  -->
<svg xmlns="http://www.w3.org/2000/svg" xmlns:xlink="http://www.w3.org/1999/xlink" version="1.1" id="Layer_1" x="0px" y="0px" viewBox="0 0 512 512" style="enable-background:new 0 0 512 512;" xml:space="preserve">
<rect x="183.976" y="357.984" style="fill:#415E72;" width="144.08" height="108.336"/>
<polygon style="fill:#333333;" points="183.976,376.72 269.688,376.72 183.976,434.624 "/>
<g>
	<path style="fill:#C7D5DD;" d="M369.52,487.28H142.496c-8.824-0.024-15.976-7.176-16-16l0,0c0.024-8.824,7.176-15.976,16-16   h227.008c8.824,0.024,15.976,7.176,16,16l0,0C385.504,480.112,378.352,487.272,369.52,487.28z"/>
	<path style="fill:#C7D5DD;" d="M480,376.72H32c-17.648-0.056-31.944-14.352-32-32v-288c0.056-17.648,14.352-31.944,32-32h448   c17.648,0.056,31.944,14.352,32,32v288C511.944,362.368,497.648,376.664,480,376.72z"/>
</g>
<rect x="21.968" y="46.656" style="fill:#FFFFFF;" width="468.08" height="308.128"/>
<rect x="328.571" y="252.998" transform="matrix(0.7071 -0.7071 0.7071 0.7071 -101.7727 325.99)" style="fill:#333333;" width="28.096" height="65.695"/>
<polygon style="fill:#415E72;" points="300.168,305.032 360.752,244.448 287.416,231.688 "/>
<path style="fill:#E04F5F;" d="M406.048,210.584H105.96c-13.888-0.016-25.144-11.272-25.16-25.16v-81.848  c0.008-13.896,11.264-25.16,25.16-25.176h300.088c13.888,0.024,25.144,11.288,25.152,25.176v81.84  C431.184,199.304,419.936,210.56,406.048,210.584z M105.96,86.4c-9.48,0.016-17.152,7.696-17.16,17.176v81.84  c0.016,9.472,7.696,17.152,17.168,17.16h300.08c9.464-0.016,17.136-7.688,17.152-17.152v-81.848  c-0.008-9.472-7.68-17.16-17.152-17.176C406.048,86.4,105.96,86.4,105.96,86.4z"/>
<g>
	<path style="fill:#32BEA6;" d="M118.696,125.272c3.704-0.576,7.448-0.864,11.2-0.84c4.416-0.432,8.848,0.72,12.496,3.248   c2.328,2.04,3.608,5.016,3.488,8.104c-0.032,4.6-2.976,8.672-7.328,10.152v0.176c3.056,1.504,5.168,4.432,5.64,7.808   c0.792,3.832,1.864,7.608,3.2,11.288h-7.632c-1.168-3.104-2.072-6.296-2.704-9.552c-1.144-5.288-3.064-6.968-7.264-7.088h-3.72   v16.64h-7.328L118.696,125.272z M126.024,143.168h4.376c4.984,0,8.112-2.64,8.112-6.664c0-4.448-3.128-6.488-7.928-6.488   c-1.528-0.048-3.056,0.08-4.56,0.36V143.168z"/>
	<path style="fill:#32BEA6;" d="M157.96,152.656c0.168,4.384,3.856,7.8,8.24,7.632c0.256-0.008,0.512-0.032,0.768-0.064   c2.76,0.072,5.512-0.376,8.112-1.32l1.088,5.104c-3.256,1.248-6.72,1.856-10.208,1.808c-7.608,0.704-14.352-4.896-15.056-12.504   c-0.072-0.752-0.08-1.512-0.024-2.272c-0.696-7.968,5.2-14.984,13.168-15.68c0.376-0.032,0.752-0.048,1.128-0.056   c7.024,0.016,12.712,5.72,12.696,12.744c0,0.496-0.032,0.992-0.088,1.488c0.016,1.048-0.064,2.096-0.24,3.128L157.96,152.656z    M170.808,147.488c0.48-3.432-1.92-6.608-5.352-7.088c-0.232-0.032-0.472-0.056-0.712-0.056c-3.792,0.216-6.768,3.344-6.792,7.144   H170.808z"/>
	<path style="fill:#32BEA6;" d="M200.176,165.208l-0.488-3.24h-0.176c-2.136,2.56-5.32,4-8.648,3.904   c-4.784,0.28-8.888-3.376-9.168-8.16c-0.008-0.184-0.016-0.36-0.016-0.544c0-7.384,6.544-11.112,17.36-11.048v-0.52   c0-1.92-0.8-5.104-5.944-5.104c-2.768,0.008-5.48,0.752-7.864,2.16l-1.448-4.8c3.232-1.768,6.88-2.664,10.568-2.584   c6-0.672,11.408,3.656,12.08,9.656c0.096,0.888,0.088,1.792-0.032,2.68v10.568c-0.032,2.352,0.112,4.696,0.424,7.024   L200.176,165.208z M199.216,150.912c-5.224-0.12-10.208,1.016-10.208,5.464c-0.192,2.128,1.384,4.008,3.512,4.2   c0.232,0.024,0.456,0.024,0.688,0c2.584,0.056,4.912-1.56,5.768-4c0.16-0.52,0.24-1.056,0.24-1.6V150.912z"/>
	<path style="fill:#32BEA6;" d="M214.216,122.568h7.456v42.64h-7.456V122.568z"/>
	<path style="fill:#32BEA6;" d="M265.024,147.248h-15.256v11.888h17.064v6.064H242.4v-40.48h23.52v6.064h-16.16v10.448h15.256   L265.024,147.248z"/>
	<path style="fill:#32BEA6;" d="M272.8,158.4c2.296,1.288,4.872,2.008,7.504,2.104c3.24,0,4.688-1.328,4.688-3.248s-1.2-3-4.8-4.264   c-5.704-1.984-8.112-5.104-8.048-8.528c0.296-5.392,4.904-9.528,10.304-9.24c0.256,0.016,0.504,0.04,0.752,0.072   c2.688-0.032,5.344,0.568,7.752,1.744l-1.448,5.224c-1.888-1.064-4.008-1.64-6.176-1.68c-2.648,0-4.088,1.264-4.088,3.064   s1.384,2.768,5.104,4.088c5.288,1.92,7.752,4.624,7.816,8.952c0,5.288-4.152,9.128-11.888,9.128   c-3.088,0.056-6.136-0.64-8.888-2.04L272.8,158.4z"/>
	<path style="fill:#32BEA6;" d="M306.688,127.608v8.344h7.032v5.528h-7.032v12.92c0,3.544,0.96,5.408,3.792,5.408   c0.968,0.008,1.944-0.112,2.88-0.36l0.12,5.648c-1.728,0.536-3.536,0.784-5.344,0.72c-2.376,0.12-4.696-0.744-6.4-2.4   c-1.76-2.336-2.576-5.256-2.28-8.168v-13.76h-4.176v-5.528h4.2v-6.608L306.688,127.608z"/>
	<path style="fill:#32BEA6;" d="M335.76,165.208l-0.488-3.24h-0.176c-2.136,2.56-5.32,4-8.648,3.904   c-4.784,0.28-8.888-3.376-9.168-8.16c-0.008-0.184-0.016-0.36-0.016-0.544c0-7.384,6.544-11.112,17.36-11.048v-0.52   c0-1.92-0.8-5.104-5.944-5.104c-2.768,0.008-5.48,0.752-7.864,2.16l-1.448-4.8c3.232-1.768,6.88-2.664,10.568-2.584   c6-0.68,11.416,3.632,12.096,9.632c0.104,0.888,0.096,1.792-0.024,2.68v10.568c-0.032,2.352,0.112,4.696,0.424,7.024   L335.76,165.208z M334.8,150.912c-5.224-0.12-10.208,1.016-10.208,5.464c-0.192,2.128,1.384,4.008,3.512,4.2   c0.232,0.024,0.456,0.024,0.688,0c2.584,0.056,4.912-1.56,5.768-4c0.16-0.52,0.24-1.056,0.24-1.6L334.8,150.912L334.8,150.912z"/>
	<path style="fill:#32BEA6;" d="M357.904,127.608v8.344h7.032v5.528h-7.032v12.92c0,3.544,0.96,5.408,3.792,5.408   c0.968,0.008,1.944-0.112,2.88-0.36l0.12,5.648c-1.728,0.536-3.536,0.784-5.344,0.72c-2.376,0.12-4.696-0.744-6.4-2.4   c-1.76-2.336-2.576-5.256-2.28-8.168v-13.76h-4.2v-5.528h4.2v-6.608L357.904,127.608z"/>
	<path style="fill:#32BEA6;" d="M375.384,152.656c0.168,4.384,3.856,7.8,8.24,7.632c0.256-0.008,0.512-0.032,0.768-0.064   c2.76,0.072,5.512-0.376,8.112-1.32l1.088,5.104c-3.256,1.248-6.72,1.856-10.208,1.808c-7.608,0.704-14.352-4.896-15.056-12.504   c-0.072-0.752-0.08-1.512-0.024-2.272c-0.696-7.968,5.2-14.984,13.168-15.68c0.376-0.032,0.752-0.048,1.128-0.056   c7.024,0.016,12.704,5.728,12.688,12.752c0,0.496-0.032,0.984-0.088,1.472c0.016,1.048-0.064,2.096-0.24,3.128L375.384,152.656   L375.384,152.656z M388.232,147.488c0.48-3.432-1.92-6.608-5.352-7.088c-0.232-0.032-0.472-0.056-0.712-0.056   c-3.792,0.216-6.768,3.344-6.792,7.144H388.232z"/>
</g>
<g>
</g>
<g>
</g>
<g>
</g>
<g>
</g>
<g>
</g>
<g>
</g>
<g>
</g>
<g>
</g>
<g>
</g>
<g>
</g>
<g>
</g>
<g>
</g>
<g>
</g>
<g>
</g>
<g>
</g>
</svg>
