<?xml version="1.0" encoding="iso-8859-1"?>
<!-- Generator: Adobe Illustrator 19.0.0, SVG Export Plug-In . SVG Version: 6.00 Build 0)  -->
<svg xmlns="http://www.w3.org/2000/svg" xmlns:xlink="http://www.w3.org/1999/xlink" version="1.1" id="Layer_1" x="0px" y="0px" viewBox="0 0 512 512" style="enable-background:new 0 0 512 512;" xml:space="preserve">
<polygon style="fill:#FFFFFF;" points="67.52,504 67.52,216.496 256,80.768 444.48,216.496 444.48,504 "/>
<path style="fill:#E04F5F;" d="M256,90.624l180.472,129.968V496H75.528V220.592L256,90.624 M256,70.904L59.528,212.4V512h392.944  V212.4L256,70.912V70.904z"/>
<g>
	<polygon style="fill:#415E72;" points="256,0 20.024,168.776 20.024,207.176 256,38.4 491.976,207.176 491.976,168.776  "/>
	<path style="fill:#415E72;" d="M165.288,229.864c6.216-1.112,12.52-1.648,18.832-1.6c7.856-0.8,15.72,1.416,22,6.2   c3.968,3.72,6.144,8.968,5.976,14.4c0.096,8.944-5.752,16.864-14.328,19.4v0.344c6.216,2.736,10.488,8.584,11.2,15.336   c1.32,7.12,3.28,14.096,5.856,20.864h-10.168c-2.272-5.88-3.968-11.96-5.08-18.16c-2.248-10.496-6.312-14.4-15.2-14.784h-9.272   V304.8h-9.816V229.864z M175.104,264.488h10.04c10.496,0,17.152-5.752,17.152-14.4c0-9.816-7.112-14.096-17.488-14.208   c-3.256-0.096-6.52,0.208-9.704,0.904L175.104,264.488L175.104,264.488z"/>
	<path style="fill:#415E72;" d="M231.592,279.384c-0.832,9.624,6.304,18.104,15.928,18.936c0.928,0.08,1.872,0.088,2.8,0.016   c5.184,0.16,10.344-0.8,15.12-2.824l1.688,7.104c-5.744,2.392-11.936,3.544-18.16,3.384c-13.968,0.88-26.008-9.728-26.888-23.704   c-0.08-1.272-0.064-2.544,0.048-3.808c0-16.472,9.696-29.448,25.6-29.448c17.824,0,22.552,15.68,22.552,25.72   c-0.016,1.544-0.128,3.088-0.336,4.624L231.592,279.384L231.592,279.384z M260.696,272.28c1.112-7.72-4.248-14.888-11.976-15.992   c-0.592-0.088-1.184-0.136-1.784-0.144c-8.472,0.64-15.064,7.64-15.2,16.136L260.696,272.28L260.696,272.28z"/>
	<path style="fill:#415E72;" d="M312.8,304.872l-0.8-6.88h-0.336c-3.928,5.24-10.144,8.264-16.696,8.128   c-8.568,0.632-16.024-5.8-16.656-14.368c-0.032-0.44-0.048-0.88-0.04-1.312c0-13.192,11.736-20.416,32.8-20.304v-1.128   c0.8-6.168-3.552-11.808-9.72-12.608c-0.896-0.12-1.8-0.12-2.696-0.024c-5.024,0.016-9.936,1.424-14.208,4.064l-2.248-6.544   c5.408-3.256,11.616-4.936,17.928-4.848c16.696,0,20.76,11.4,20.76,22.336V291.8c-0.072,4.384,0.224,8.76,0.896,13.088   L312.8,304.872z M311.336,277.016c-10.832-0.224-23.128,1.688-23.128,12.296c-0.384,4.848,3.24,9.08,8.08,9.464   c0.424,0.032,0.856,0.04,1.28,0.008c5.92,0.152,11.248-3.544,13.192-9.136c0.352-1.016,0.544-2.08,0.568-3.16L311.336,277.016z"/>
	<path style="fill:#415E72;" d="M336.912,224.8h9.92v80.072h-9.92V224.8z"/>
	<path style="fill:#415E72;" d="M161.696,376.856h-29.552v27.408h32.936v8.232h-42.752v-76h41.064v8.232h-31.248v24h29.552V376.856z   "/>
	<path style="fill:#415E72;" d="M176.12,402.352c3.928,2.456,8.448,3.816,13.08,3.944c7.2,0,10.608-3.608,10.608-8.128   c0-4.736-2.824-7.328-10.16-10.032c-9.816-3.496-14.4-8.912-14.4-15.456c0.376-9.272,8.192-16.488,17.464-16.112   c0.456,0.016,0.912,0.056,1.368,0.112c4.696-0.048,9.32,1.12,13.424,3.392l-2.48,7.2c-3.36-2.088-7.24-3.2-11.2-3.2   c-5.856,0-9.136,3.384-9.136,7.448c0,4.512,3.272,6.544,10.4,9.248c9.48,3.608,14.328,8.344,14.328,16.472   c0,9.6-7.448,16.352-20.416,16.352c-5.352,0.104-10.632-1.184-15.344-3.72L176.12,402.352z"/>
	<path style="fill:#415E72;" d="M234.08,342.224v15.68h14.208v7.56H234.08v29.44c0,6.768,1.92,10.6,7.448,10.6   c1.944,0.032,3.88-0.2,5.76-0.68l0.448,7.448c-2.824,0.992-5.808,1.448-8.8,1.352c-4.008,0.248-7.92-1.28-10.712-4.168   c-3.016-4.088-4.384-9.16-3.832-14.208v-29.776h-8.472v-7.56h8.464V344.8L234.08,342.224z"/>
	<path style="fill:#415E72;" d="M289.672,412.504l-0.8-6.88h-0.336c-3.928,5.24-10.144,8.264-16.696,8.128   c-8.568,0.632-16.024-5.8-16.656-14.368c-0.032-0.44-0.048-0.88-0.04-1.312c0-13.192,11.736-20.416,32.8-20.304v-1.128   c0.8-6.168-3.552-11.808-9.712-12.608c-0.88-0.112-1.768-0.12-2.656-0.032c-5.024,0.016-9.944,1.424-14.216,4.064l-2.248-6.544   c5.408-3.256,11.616-4.936,17.928-4.848c16.696,0,20.76,11.4,20.76,22.336v20.416c-0.072,4.384,0.224,8.76,0.896,13.088   L289.672,412.504z M288.2,384.648c-10.832-0.224-23.12,1.688-23.12,12.296c-0.384,4.848,3.24,9.08,8.08,9.464   c0.424,0.032,0.856,0.04,1.28,0.008c5.92,0.152,11.248-3.544,13.192-9.136c0.352-1.016,0.544-2.08,0.56-3.16L288.2,384.648z"/>
	<path style="fill:#415E72;" d="M325.296,342.224v15.68h14.208v7.56h-14.208v29.44c0,6.768,1.92,10.6,7.448,10.6   c1.944,0.032,3.88-0.2,5.76-0.68l0.448,7.448c-2.824,0.992-5.808,1.448-8.8,1.352c-4.008,0.248-7.92-1.28-10.712-4.168   c-3.016-4.088-4.384-9.16-3.832-14.208v-29.776h-8.464v-7.56h8.456V344.8L325.296,342.224z"/>
	<path style="fill:#415E72;" d="M355.512,387.008c-0.832,9.624,6.304,18.104,15.928,18.936c0.928,0.08,1.872,0.088,2.8,0.016   c5.184,0.16,10.344-0.8,15.12-2.824l1.688,7.104c-5.744,2.392-11.936,3.544-18.16,3.384c-13.968,0.88-26.008-9.728-26.888-23.704   c-0.08-1.272-0.064-2.544,0.048-3.808c0-16.472,9.696-29.448,25.6-29.448c17.824,0,22.552,15.68,22.552,25.72   c-0.016,1.544-0.128,3.088-0.336,4.624L355.512,387.008L355.512,387.008z M384.616,379.904c1.112-7.72-4.248-14.888-11.976-15.992   c-0.592-0.088-1.184-0.136-1.784-0.144c-8.472,0.64-15.064,7.64-15.2,16.136L384.616,379.904L384.616,379.904z"/>
</g>
<g>
</g>
<g>
</g>
<g>
</g>
<g>
</g>
<g>
</g>
<g>
</g>
<g>
</g>
<g>
</g>
<g>
</g>
<g>
</g>
<g>
</g>
<g>
</g>
<g>
</g>
<g>
</g>
<g>
</g>
</svg>
