<?xml version="1.0" encoding="iso-8859-1"?>
<!-- Generator: Adobe Illustrator 19.0.0, SVG Export Plug-In . SVG Version: 6.00 Build 0)  -->
<svg xmlns="http://www.w3.org/2000/svg" xmlns:xlink="http://www.w3.org/1999/xlink" version="1.1" id="Layer_1" x="0px" y="0px" viewBox="0 0 512 512" style="enable-background:new 0 0 512 512;" xml:space="preserve">
<rect x="183.976" y="357.984" style="fill:#415E72;" width="144.08" height="108.336"/>
<polygon style="fill:#333333;" points="183.976,376.72 269.688,376.72 183.976,434.624 "/>
<g>
	<path style="fill:#C7D5DD;" d="M369.52,487.28H142.496c-8.824-0.024-15.976-7.176-16-16l0,0c0.024-8.824,7.176-15.976,16-16   h227.008c8.824,0.024,15.976,7.176,16,16l0,0C385.504,480.112,378.352,487.272,369.52,487.28z"/>
	<path style="fill:#C7D5DD;" d="M480,376.72H32c-17.648-0.056-31.944-14.352-32-32v-288c0.056-17.648,14.352-31.944,32-32h448   c17.648,0.056,31.944,14.352,32,32v288C511.944,362.368,497.648,376.664,480,376.72z"/>
</g>
<rect x="21.968" y="46.656" style="fill:#FFFFFF;" width="468.08" height="308.128"/>
<polygon style="fill:#2C3E50;" points="140.28,199.608 133.968,194.688 222.368,81.344 342.584,154.952 338.416,161.784   224.288,91.888 "/>
<circle style="fill:#415E72;" cx="224.88" cy="94.688" r="24.688"/>
<circle style="fill:#517A91;" cx="224.88" cy="94.688" r="12.864"/>
<rect x="87.437" y="166.154" transform="matrix(0.9823 -0.1873 0.1873 0.9823 -45.5721 52.6898)" style="fill:#32BEA6;" width="337.199" height="202.695"/>
<g>
	<path style="fill:#FFFFFF;" d="M209.776,239.24c3.744,12-2.944,24.76-14.936,28.512c-0.976,0.304-1.968,0.544-2.976,0.712   c-12.072,2.304-23.72-5.608-26.024-17.68c-0.144-0.744-0.248-1.488-0.312-2.24c-3.544-12.224,3.488-25,15.704-28.552   c0.672-0.192,1.344-0.36,2.032-0.488c12.032-2.424,23.752,5.368,26.168,17.408C209.592,237.68,209.704,238.456,209.776,239.24z    M174.616,246.672c1.832,9.6,8.136,16.336,16.416,14.76s11.568-10.208,9.688-20.104c-1.704-8.904-7.72-16.488-16.352-14.832   S172.76,236.912,174.616,246.672z"/>
	<path style="fill:#FFFFFF;" d="M212.952,215.296c4.224-1.544,8.568-2.72,13-3.496c4.888-1.328,10.088-0.904,14.696,1.192   c3.536,2.048,5.96,5.568,6.616,9.6c0.96,3.952,0.232,8.12-2.016,11.512c-3.448,4.36-8.472,7.192-13.984,7.896   c-1.408,0.296-2.832,0.464-4.264,0.52l3.4,17.8l-8.552,1.6L212.952,215.296z M225.712,235.696c1.44,0.024,2.872-0.128,4.272-0.456   c6.456-1.232,9.784-5.144,8.728-10.68c-1.008-5.264-5.184-7.376-11.16-6.232c-1.68,0.28-3.32,0.744-4.896,1.376L225.712,235.696z"/>
	<path style="fill:#FFFFFF;" d="M283.528,228.448l-17.816,3.4l2.648,13.888l19.92-3.8l1.344,7.088l-28.544,5.448l-9.008-47.272   l27.504-5.248l1.352,7.08l-18.864,3.6l2.328,12.208l17.816-3.4L283.528,228.448z"/>
	<path style="fill:#FFFFFF;" d="M297.24,247.568l-9.016-47.28l9.824-1.864l16.072,17.936c4.016,4.512,7.728,9.296,11.096,14.312   h0.144c-1.768-6.2-3.144-12.264-4.52-19.496l-3.144-16.488l8-1.52l9.016,47.28l-8.904,1.696l-16.304-18.4   c-4.136-4.688-8.008-9.6-11.6-14.72l-0.2,0.112c1.512,6.032,2.784,12.256,4.264,20.056l3.2,16.904L297.24,247.568z"/>
	<path style="fill:#FFFFFF;" d="M163.8,297.864l3.608,18.944l20-3.816l-3.608-18.944l8.624-1.64l9.016,47.28l-8.624,1.64l-4-20.8   l-20,3.816l4,20.8l-8.632,1.648l-8.984-47.28L163.8,297.864z"/>
	<path style="fill:#FFFFFF;" d="M248.704,305.672c3.744,11.992-2.936,24.752-14.928,28.504c-0.976,0.304-1.968,0.544-2.976,0.712   c-12.064,2.312-23.712-5.6-26.024-17.664c-0.144-0.744-0.248-1.496-0.312-2.248c-3.552-12.216,3.472-24.992,15.688-28.544   c0.672-0.192,1.352-0.36,2.04-0.496c12.032-2.424,23.752,5.368,26.168,17.408C248.52,304.112,248.632,304.888,248.704,305.672z    M213.552,313.096c1.832,9.6,8.136,16.336,16.408,14.76s11.576-10.2,9.696-20.096c-1.704-8.904-7.728-16.48-16.352-14.832   S211.696,303.344,213.552,313.096z"/>
	<path style="fill:#FFFFFF;" d="M260.32,279.464l5.256,27.568c1.768,9.256,6.448,12.8,12.264,11.696   c6.24-1.192,9.144-6.176,7.376-15.448L280,275.72l8.632-1.648l5.152,27.008c2.784,14.592-3.496,22.48-14.856,24.64   c-10.936,2.096-19.2-2.672-22.024-17.528l-5.168-27.08L260.32,279.464z"/>
	<path style="fill:#FFFFFF;" d="M305.528,310.104c3.872,1.264,7.992,1.536,12,0.8c5.544-1.064,8.144-4.24,7.408-8.104   c-0.688-3.576-3.48-5.224-9.92-6.24c-8.32-1.328-14.096-4.512-15.392-11.32c-1.472-7.728,3.856-14.832,14.104-16.8   c3.904-0.856,7.952-0.792,11.824,0.2l-0.8,7.352c-3.192-0.944-6.568-1.096-9.832-0.448c-5.48,1.048-7.296,4.448-6.776,7.2   c0.696,3.648,3.752,4.8,10.536,6.064c8.8,1.512,13.6,4.888,14.872,11.696c1.448,7.576-3.048,15.264-15.256,17.6   c-4.416,0.888-8.984,0.72-13.32-0.504L305.528,310.104z"/>
	<path style="fill:#FFFFFF;" d="M366.4,286.504l-17.824,3.4l2.648,13.888L371.2,300l1.352,7.08L344,312.504l-9.016-47.28   l27.496-5.24l1.352,7.088l-18.864,3.6l2.328,12.208l17.824-3.4L366.4,286.504z"/>
</g>
<g>
</g>
<g>
</g>
<g>
</g>
<g>
</g>
<g>
</g>
<g>
</g>
<g>
</g>
<g>
</g>
<g>
</g>
<g>
</g>
<g>
</g>
<g>
</g>
<g>
</g>
<g>
</g>
<g>
</g>
</svg>
