<?xml version="1.0" encoding="iso-8859-1"?>
<!-- Generator: Adobe Illustrator 19.0.0, SVG Export Plug-In . SVG Version: 6.00 Build 0)  -->
<svg xmlns="http://www.w3.org/2000/svg" xmlns:xlink="http://www.w3.org/1999/xlink" version="1.1" id="Layer_1" x="0px" y="0px" viewBox="0 0 512 512" style="enable-background:new 0 0 512 512;" xml:space="preserve">
<rect x="183.976" y="357.984" style="fill:#415E72;" width="144.08" height="108.336"/>
<polygon style="fill:#333333;" points="183.976,376.72 269.688,376.72 183.976,434.624 "/>
<g>
	<path style="fill:#C7D5DD;" d="M369.52,487.28H142.496c-8.824-0.024-15.976-7.176-16-16l0,0c0.024-8.824,7.176-15.976,16-16   h227.008c8.824,0.024,15.976,7.176,16,16l0,0C385.504,480.112,378.352,487.272,369.52,487.28z"/>
	<path style="fill:#C7D5DD;" d="M480,376.72H32c-17.648-0.056-31.944-14.352-32-32v-288c0.056-17.648,14.352-31.944,32-32h448   c17.648,0.056,31.944,14.352,32,32v288C511.944,362.368,497.648,376.664,480,376.72z"/>
</g>
<rect x="21.968" y="46.656" style="fill:#FFFFFF;" width="468.08" height="308.128"/>
<polygon style="fill:#415E72;" points="371.24,85.552 300.808,135.92 300.808,153.944 371.24,103.568 441.664,153.944   441.664,135.92 "/>
<polygon style="fill:#C7D5DD;" points="312.6,235.032 312.6,145.616 371.24,103.392 429.872,145.616 429.872,235.032 "/>
<g>
	<rect x="332.552" y="151.768" style="fill:#FFFFFF;" width="27.176" height="27.176"/>
	<rect x="382.744" y="151.768" style="fill:#FFFFFF;" width="27.176" height="27.176"/>
</g>
<polygon style="fill:#415E72;" points="140.76,166.408 70.336,216.776 70.336,234.8 140.76,184.424 211.192,234.8 211.192,216.776   "/>
<polygon style="fill:#C7D5DD;" points="82.128,315.888 82.128,226.472 140.76,184.248 199.4,226.472 199.4,315.888 "/>
<g>
	<rect x="102.08" y="232.64" style="fill:#FFFFFF;" width="27.176" height="27.176"/>
	<rect x="152.24" y="232.64" style="fill:#FFFFFF;" width="27.176" height="27.176"/>
</g>
<g>
	<rect x="284.032" y="233.12" style="fill:#C1CED6;" width="206.032" height="8"/>
	<rect x="20.648" y="311.888" style="fill:#C1CED6;" width="206.04" height="8"/>
</g>
<g>
</g>
<g>
</g>
<g>
</g>
<g>
</g>
<g>
</g>
<g>
</g>
<g>
</g>
<g>
</g>
<g>
</g>
<g>
</g>
<g>
</g>
<g>
</g>
<g>
</g>
<g>
</g>
<g>
</g>
</svg>
