<?xml version="1.0" encoding="iso-8859-1"?>
<!-- Generator: Adobe Illustrator 19.0.0, SVG Export Plug-In . SVG Version: 6.00 Build 0)  -->
<svg xmlns="http://www.w3.org/2000/svg" xmlns:xlink="http://www.w3.org/1999/xlink" version="1.1" id="Layer_1" x="0px" y="0px" viewBox="0 0 512 512" style="enable-background:new 0 0 512 512;" xml:space="preserve">
<polygon style="fill:#415E72;" points="375.408,121.608 294.448,179.52 294.448,200.224 375.408,142.328 456.368,200.224   456.368,179.52 "/>
<polygon style="fill:#32BEA6;" points="308,293.448 308,190.656 375.408,142.112 442.808,190.656 442.808,293.448 "/>
<g>
	<rect x="330.96" y="197.72" style="fill:#FFFFFF;" width="31.24" height="31.24"/>
	<rect x="388.632" y="197.72" style="fill:#FFFFFF;" width="31.24" height="31.24"/>
</g>
<polygon style="fill:#415E72;" points="138.064,214.552 57.112,272.448 57.112,293.168 138.064,235.272 219.024,293.168   219.024,272.448 "/>
<polygon style="fill:#E04F5F;" points="70.664,386.384 70.664,283.6 138.064,235.056 205.472,283.6 205.472,386.384 "/>
<g>
	<rect x="93.6" y="290.64" style="fill:#FFFFFF;" width="31.24" height="31.24"/>
	<rect x="151.296" y="290.64" style="fill:#FFFFFF;" width="31.24" height="31.24"/>
</g>
<g>
	<rect x="275.168" y="291.808" style="fill:#C7D5DD;" width="236.832" height="8"/>
	<rect y="382.392" style="fill:#C7D5DD;" width="236.832" height="8"/>
</g>
<g>
</g>
<g>
</g>
<g>
</g>
<g>
</g>
<g>
</g>
<g>
</g>
<g>
</g>
<g>
</g>
<g>
</g>
<g>
</g>
<g>
</g>
<g>
</g>
<g>
</g>
<g>
</g>
<g>
</g>
</svg>
