<?xml version="1.0" encoding="iso-8859-1"?>
<!-- Generator: Adobe Illustrator 19.0.0, SVG Export Plug-In . SVG Version: 6.00 Build 0)  -->
<svg xmlns="http://www.w3.org/2000/svg" xmlns:xlink="http://www.w3.org/1999/xlink" version="1.1" id="Layer_1" x="0px" y="0px" viewBox="0 0 512 512" style="enable-background:new 0 0 512 512;" xml:space="preserve">
<polygon style="fill:#C7D5DD;" points="430.12,387.248 422.12,387.248 422.12,136.2 89.88,136.2 89.88,387.248 81.88,387.248   81.88,128.2 430.12,128.2 "/>
<circle style="fill:#FFD07D;" cx="255.976" cy="132.2" r="122.192"/>
<polygon style="fill:#415E72;" points="426.12,319.712 340.248,381.136 340.248,403.112 426.12,341.688 512,403.112 512,381.136 "/>
<polygon style="fill:#C7D5DD;" points="354.624,501.992 354.624,392.96 426.12,341.464 497.624,392.96 497.624,501.992 "/>
<g>
	<rect x="378.96" y="400.48" style="fill:#FFFFFF;" width="33.136" height="33.136"/>
	<rect x="440.16" y="400.48" style="fill:#FFFFFF;" width="33.136" height="33.136"/>
</g>
<polygon style="fill:#415E72;" points="85.88,319.712 0,381.136 0,403.112 85.88,341.688 171.752,403.112 171.752,381.136 "/>
<polygon style="fill:#C7D5DD;" points="14.376,501.992 14.376,392.96 85.88,341.464 157.376,392.96 157.376,501.992 "/>
<g>
	<rect x="38.712" y="400.48" style="fill:#FFFFFF;" width="33.136" height="33.136"/>
	<rect x="99.904" y="400.48" style="fill:#FFFFFF;" width="33.136" height="33.136"/>
</g>
<path style="fill:#E04F5F;" d="M256,213.152l-6.848-9.048c-5.048-6.6-49.152-65.52-49.152-94.872c0-35.2,21.984-57.976,56-57.976  s56,22.76,56,57.976c0,29.304-44.136,88.232-49.136,94.872L256,213.152z"/>
<circle style="fill:#FFFFFF;" cx="255.96" cy="109.616" r="18.144"/>
<g>
</g>
<g>
</g>
<g>
</g>
<g>
</g>
<g>
</g>
<g>
</g>
<g>
</g>
<g>
</g>
<g>
</g>
<g>
</g>
<g>
</g>
<g>
</g>
<g>
</g>
<g>
</g>
<g>
</g>
</svg>
