<?xml version="1.0" encoding="iso-8859-1"?>
<!-- Generator: Adobe Illustrator 19.0.0, SVG Export Plug-In . SVG Version: 6.00 Build 0)  -->
<svg xmlns="http://www.w3.org/2000/svg" xmlns:xlink="http://www.w3.org/1999/xlink" version="1.1" id="Layer_1" x="0px" y="0px" viewBox="0 0 512 512" style="enable-background:new 0 0 512 512;" xml:space="preserve">
<g>
	<rect x="248" y="171.928" style="fill:#CFDCE5;" width="16" height="187.144"/>
	<polygon style="fill:#CFDCE5;" points="445.456,359.064 429.456,359.064 429.456,310.736 82.544,310.736 82.544,359.064    66.544,359.064 66.544,294.736 445.456,294.736  "/>
</g>
<g>
	<rect x="197.744" y="389.864" style="fill:#AAC1CE;" width="116.536" height="116.536"/>
	<rect x="16.28" y="389.864" style="fill:#AAC1CE;" width="116.536" height="116.536"/>
	<rect x="379.2" y="389.864" style="fill:#AAC1CE;" width="116.536" height="116.536"/>
</g>
<polygon style="fill:#415E72;" points="256,5.6 162.24,72.656 162.24,101.712 256,34.656 349.76,101.712 349.76,72.656 "/>
<polygon style="fill:#32BEA6;" points="177.936,228.92 177.936,109.872 256,53.656 334.064,109.872 334.064,228.92 "/>
<polygon style="fill:#415E72;" points="442.664,63.776 373.328,113.36 373.328,134.856 442.664,85.264 512,134.856 512,113.36 "/>
<polygon style="fill:#E04F5F;" points="384.936,228.92 384.936,140.888 442.664,99.32 500.392,140.888 500.392,228.92 "/>
<polygon style="fill:#415E72;" points="69.336,63.776 0,113.36 0,134.856 69.336,85.264 138.672,134.856 138.672,113.36 "/>
<polygon style="fill:#FFD07D;" points="11.608,228.92 11.608,140.888 69.336,99.32 127.064,140.888 127.064,228.92 "/>
<g>
</g>
<g>
</g>
<g>
</g>
<g>
</g>
<g>
</g>
<g>
</g>
<g>
</g>
<g>
</g>
<g>
</g>
<g>
</g>
<g>
</g>
<g>
</g>
<g>
</g>
<g>
</g>
<g>
</g>
</svg>
