<?xml version="1.0" encoding="iso-8859-1"?>
<!-- Generator: Adobe Illustrator 19.0.0, SVG Export Plug-In . SVG Version: 6.00 Build 0)  -->
<svg xmlns="http://www.w3.org/2000/svg" xmlns:xlink="http://www.w3.org/1999/xlink" version="1.1" id="Layer_1" x="0px" y="0px" viewBox="0 0 512 512" style="enable-background:new 0 0 512 512;" xml:space="preserve">
<rect x="183.976" y="357.984" style="fill:#415E72;" width="144.08" height="108.336"/>
<polygon style="fill:#333333;" points="183.976,376.72 269.688,376.72 183.976,434.624 "/>
<g>
	<path style="fill:#C7D5DD;" d="M369.52,487.28H142.496c-8.824-0.024-15.976-7.176-16-16l0,0c0.024-8.824,7.176-15.976,16-16   h227.008c8.824,0.024,15.976,7.176,16,16l0,0C385.504,480.112,378.352,487.272,369.52,487.28z"/>
	<path style="fill:#C7D5DD;" d="M480,376.72H32c-17.648-0.056-31.944-14.352-32-32v-288c0.056-17.648,14.352-31.944,32-32h448   c17.648,0.056,31.944,14.352,32,32v288C511.944,362.368,497.648,376.664,480,376.72z"/>
</g>
<rect x="21.968" y="46.656" style="fill:#FFFFFF;" width="468.08" height="308.128"/>
<rect x="369.142" y="267.258" transform="matrix(0.7071 -0.7071 0.7071 0.7071 -99.9732 358.855)" style="fill:#333333;" width="28.096" height="65.695"/>
<polygon style="fill:#415E72;" points="340.776,319.256 401.36,258.672 328.024,245.912 "/>
<g>
	<rect x="106.84" y="252.048" style="fill:#AAC1CE;" width="190.536" height="8"/>
	<rect x="106.84" y="278.248" style="fill:#AAC1CE;" width="190.536" height="8"/>
	<rect x="106.84" y="304.96" style="fill:#AAC1CE;" width="190.536" height="8"/>
</g>
<polygon style="fill:#415E72;" points="261.24,72.6 202.008,114.968 202.008,133.32 261.24,90.952 320.48,133.32 320.48,114.968 "/>
<polygon style="fill:#32BEA6;" points="211.928,213.68 211.928,138.472 261.24,102.96 310.56,138.472 310.56,213.68 "/>
<polygon style="fill:#415E72;" points="379.176,109.352 335.368,140.68 335.368,154.256 379.176,122.928 422.976,154.256   422.976,140.68 "/>
<polygon style="fill:#AAC1CE;" points="342.704,213.68 342.704,158.072 379.176,131.808 415.64,158.072 415.64,213.68 "/>
<polygon style="fill:#415E72;" points="143.312,109.352 99.512,140.68 99.512,154.256 143.312,122.928 187.12,154.256   187.12,140.68 "/>
<polygon style="fill:#FFD07D;" points="106.848,213.68 106.848,158.072 143.312,131.808 179.784,158.072 179.784,213.68 "/>
<g>
</g>
<g>
</g>
<g>
</g>
<g>
</g>
<g>
</g>
<g>
</g>
<g>
</g>
<g>
</g>
<g>
</g>
<g>
</g>
<g>
</g>
<g>
</g>
<g>
</g>
<g>
</g>
<g>
</g>
</svg>
