<?xml version="1.0" encoding="iso-8859-1"?>
<!-- Generator: Adobe Illustrator 19.0.0, SVG Export Plug-In . SVG Version: 6.00 Build 0)  -->
<svg xmlns="http://www.w3.org/2000/svg" xmlns:xlink="http://www.w3.org/1999/xlink" version="1.1" id="Layer_1" x="0px" y="0px" viewBox="0 0 512 512" style="enable-background:new 0 0 512 512;" xml:space="preserve">
<polygon style="fill:#415E72;" points="155.04,137.696 0,248.584 0,273.8 155.04,162.92 310.08,273.8 310.08,248.584 "/>
<polygon style="fill:#25B6D2;" points="25.952,474.072 25.952,277.232 155.04,184.28 284.12,277.232 284.12,474.072 "/>
<g>
	<rect x="69.88" y="290.8" style="fill:#FFFFFF;" width="59.832" height="59.832"/>
	<rect x="180.368" y="290.8" style="fill:#FFFFFF;" width="59.832" height="59.832"/>
</g>
<path style="fill:#E04F5F;" d="M413.512,322.488l-12.04-15.904c-8.864-11.592-86.448-115.152-86.448-166.752  c0-61.896,38.632-101.904,98.488-101.904S512,77.928,512,139.832c0,51.512-77.6,155.088-86.4,166.752L413.512,322.488z"/>
<circle style="fill:#FFFFFF;" cx="413.44" cy="140.504" r="31.896"/>
<g>
</g>
<g>
</g>
<g>
</g>
<g>
</g>
<g>
</g>
<g>
</g>
<g>
</g>
<g>
</g>
<g>
</g>
<g>
</g>
<g>
</g>
<g>
</g>
<g>
</g>
<g>
</g>
<g>
</g>
</svg>
