<?xml version="1.0" encoding="iso-8859-1"?>
<!-- Generator: Adobe Illustrator 19.0.0, SVG Export Plug-In . SVG Version: 6.00 Build 0)  -->
<svg xmlns="http://www.w3.org/2000/svg" xmlns:xlink="http://www.w3.org/1999/xlink" version="1.1" id="Layer_1" x="0px" y="0px" viewBox="0 0 512 512" style="enable-background:new 0 0 512 512;" xml:space="preserve">
<polygon style="fill:#FFFFFF;" points="67.532,503.969 67.532,216.482 256,80.763 444.468,216.482 444.468,503.969 "/>
<path style="fill:#E04F5F;" d="M256,90.618l180.461,129.96v275.423H75.539V220.578L256,90.618 M256,70.908L59.54,212.387V512H452.46  V212.387L256,70.908z"/>
<polygon style="fill:#415E72;" points="256,0 20.039,168.765 20.039,207.163 256,38.398 491.961,207.163 491.961,168.765 "/>
<path style="fill:#32BEA6;" d="M282.598,336.875V320.94c25.942-14.687,35.062-47.629,20.375-73.571  c-14.687-25.942-47.629-35.062-73.571-20.375c-25.942,14.687-35.062,47.629-20.375,73.571c4.824,8.511,11.863,15.551,20.375,20.375  v15.935c-50.301,2.352-75.883,36.366-75.883,59.196v18.775h204.963v-18.743C358.482,373.241,332.899,339.211,282.598,336.875z"/>
<g>
</g>
<g>
</g>
<g>
</g>
<g>
</g>
<g>
</g>
<g>
</g>
<g>
</g>
<g>
</g>
<g>
</g>
<g>
</g>
<g>
</g>
<g>
</g>
<g>
</g>
<g>
</g>
<g>
</g>
</svg>
