<?xml version="1.0" encoding="iso-8859-1"?>
<!-- Generator: Adobe Illustrator 19.0.0, SVG Export Plug-In . SVG Version: 6.00 Build 0)  -->
<svg xmlns="http://www.w3.org/2000/svg" xmlns:xlink="http://www.w3.org/1999/xlink" version="1.1" id="Layer_1" x="0px" y="0px" viewBox="0 0 512 512" style="enable-background:new 0 0 512 512;" xml:space="preserve">
<path style="fill:#FFFFFF;" d="M256,508C116.824,508,4,395.176,4,256S116.824,4,256,4s252,112.824,252,252  C507.84,395.112,395.112,507.84,256,508z"/>
<path style="fill:#CFDCE5;" d="M256,8c136.968,0,248,111.032,248,248S392.968,504,256,504S8,392.968,8,256  C8.152,119.096,119.096,8.152,256,8 M256,0C114.616,0,0,114.616,0,256s114.616,256,256,256s256-114.616,256-256S397.384,0,256,0z"/>
<path style="fill:#32BEA6;" d="M256,50.976c113.232,0,205.024,91.792,205.024,205.024S369.232,461.024,256,461.024  S50.976,369.232,50.976,256C51.104,142.824,142.824,51.104,256,50.976 M256,34.976C133.928,34.976,34.976,133.928,34.976,256  S133.928,477.024,256,477.024S477.024,378.072,477.024,256l0,0C477.024,133.928,378.072,34.976,256,34.976z"/>
<path style="fill:#E04F5F;" d="M287.824,253.784V234.72c31.04-17.576,41.952-56.984,24.376-88.024s-56.984-41.952-88.024-24.376  s-41.952,56.984-24.376,88.024c5.768,10.184,14.192,18.608,24.376,24.376v19.064c-60.184,2.816-90.792,43.512-90.792,70.864v22.464  h245.232v-22.464C378.616,297.296,348,256.6,287.824,253.784z"/>
<g>
</g>
<g>
</g>
<g>
</g>
<g>
</g>
<g>
</g>
<g>
</g>
<g>
</g>
<g>
</g>
<g>
</g>
<g>
</g>
<g>
</g>
<g>
</g>
<g>
</g>
<g>
</g>
<g>
</g>
</svg>
