<?xml version="1.0" encoding="iso-8859-1"?>
<!-- Generator: Adobe Illustrator 19.0.0, SVG Export Plug-In . SVG Version: 6.00 Build 0)  -->
<svg xmlns="http://www.w3.org/2000/svg" xmlns:xlink="http://www.w3.org/1999/xlink" version="1.1" id="Layer_1" x="0px" y="0px" viewBox="0 0 512 512" style="enable-background:new 0 0 512 512;" xml:space="preserve">
<path style="fill:#FFFFFF;" d="M256,508C116.824,508,4,395.176,4,256S116.824,4,256,4s252,112.824,252,252  C507.84,395.112,395.112,507.84,256,508z"/>
<path style="fill:#CFDCE5;" d="M256,8c136.968,0,248,111.032,248,248S392.968,504,256,504S8,392.968,8,256  C8.152,119.096,119.096,8.152,256,8 M256,0C114.616,0,0,114.616,0,256s114.616,256,256,256s256-114.616,256-256S397.384,0,256,0z"/>
<circle style="fill:#FFD07D;" cx="256" cy="256" r="221.024"/>
<rect x="125.36" y="134.64" style="fill:#FFFFFF;" width="261.28" height="92.304"/>
<rect x="125.36" y="134.64" style="fill:#CFDCE5;" width="261.28" height="39.52"/>
<rect x="233.28" y="302.984" style="fill:#E04F5F;" width="45.4" height="127.544"/>
<rect x="244" y="226.944" style="fill:#5B7D99;" width="24" height="66.016"/>
<rect x="222.288" y="290.32" style="fill:#E27181;" width="67.424" height="15.784"/>
<g style="opacity:0.25;">
	<rect x="243.992" y="226.944" width="24" height="9.248"/>
</g>
<g>
</g>
<g>
</g>
<g>
</g>
<g>
</g>
<g>
</g>
<g>
</g>
<g>
</g>
<g>
</g>
<g>
</g>
<g>
</g>
<g>
</g>
<g>
</g>
<g>
</g>
<g>
</g>
<g>
</g>
</svg>
