<?xml version="1.0" encoding="iso-8859-1"?>
<!-- Generator: Adobe Illustrator 19.0.0, SVG Export Plug-In . SVG Version: 6.00 Build 0)  -->
<svg xmlns="http://www.w3.org/2000/svg" xmlns:xlink="http://www.w3.org/1999/xlink" version="1.1" id="Layer_1" x="0px" y="0px" viewBox="0 0 512 512" style="enable-background:new 0 0 512 512;" xml:space="preserve">
<polygon style="fill:#415E72;" points="265.856,187.112 185.144,244.84 185.144,269.856 265.856,212.128 346.576,269.856   346.576,244.84 "/>
<polygon style="fill:#CFDCE5;" points="198.656,379.36 198.656,276.88 265.856,228.488 333.064,276.88 333.064,379.36 "/>
<path style="fill:#E04F5F;" d="M441.936,331.08l-8.568-11.312c-6.304-8.248-61.496-81.928-61.496-118.632  c0-44,27.488-72.496,70.064-72.496S512,157.096,512,201.136c0,36.648-55.2,110.328-61.448,118.632L441.936,331.08z"/>
<circle style="fill:#FFFFFF;" cx="441.84" cy="201.6" r="22.688"/>
<polygon style="fill:#415E72;" points="105.168,208.656 45.48,251.344 45.48,269.84 105.168,227.152 164.856,269.84   164.856,251.344 "/>
<g>
	<polygon style="fill:#AAC1CE;" points="55.472,350.816 55.472,275.032 105.168,239.248 154.864,275.032 154.864,350.816  "/>
	<rect y="346.8" style="fill:#AAC1CE;" width="198.656" height="8"/>
</g>
<rect x="159.848" y="375.36" style="fill:#CFDCE5;" width="212.016" height="8"/>
<g>
</g>
<g>
</g>
<g>
</g>
<g>
</g>
<g>
</g>
<g>
</g>
<g>
</g>
<g>
</g>
<g>
</g>
<g>
</g>
<g>
</g>
<g>
</g>
<g>
</g>
<g>
</g>
<g>
</g>
</svg>
