<?xml version="1.0" encoding="iso-8859-1"?>
<!-- Generator: Adobe Illustrator 19.0.0, SVG Export Plug-In . SVG Version: 6.00 Build 0)  -->
<svg xmlns="http://www.w3.org/2000/svg" xmlns:xlink="http://www.w3.org/1999/xlink" version="1.1" id="Layer_1" x="0px" y="0px" viewBox="0 0 511.976 511.976" style="enable-background:new 0 0 511.976 511.976;" xml:space="preserve">
<polygon style="fill:#E04F5F;" points="241.179,0 81.82,113.983 81.82,139.908 241.179,25.933 400.537,139.908 400.537,113.983 "/>
<polygon style="fill:#CFDCE5;" points="108.495,345.763 108.495,143.432 241.179,47.883 373.862,143.432 373.862,345.763 "/>
<rect x="169.491" y="403.138" style="fill:#E04F5F;" width="143.465" height="16.128"/>
<g>
	<rect x="85.11" y="449.505" style="fill:#C1CED6;" width="312.145" height="16.128"/>
	<rect x="85.11" y="495.848" style="fill:#C1CED6;" width="312.145" height="16.128"/>
</g>
<path style="fill:#32BEA6;" d="M345.928,168.374c-31.643,33.223-84.211,25.748-84.211,25.748v90.114  c0,53.101,84.219,90.114,84.219,90.114s84.219-37.013,84.219-90.114v-90.114C430.156,194.122,377.579,201.597,345.928,168.374z"/>
<path style="fill:#415E72;" d="M345.928,198.025c-22.539,23.684-59.971,18.337-59.971,18.337v64.172  c0,37.82,59.971,64.172,59.971,64.172s59.971-26.361,59.971-64.172v-64.18C405.9,216.354,368.467,221.708,345.928,198.025z"/>
<path style="fill:#FFFFFF;" d="M354.387,269.93v-5.064c8.241-4.677,11.128-15.144,6.451-23.385  c-4.677-8.241-15.144-11.128-23.385-6.451s-11.128,15.144-6.451,23.385c1.532,2.693,3.758,4.919,6.451,6.451v5.064  c-15.983,0.75-24.111,11.556-24.111,18.821v5.967h65.132v-5.967C378.498,281.486,370.37,270.68,354.387,269.93z"/>
<g>
</g>
<g>
</g>
<g>
</g>
<g>
</g>
<g>
</g>
<g>
</g>
<g>
</g>
<g>
</g>
<g>
</g>
<g>
</g>
<g>
</g>
<g>
</g>
<g>
</g>
<g>
</g>
<g>
</g>
</svg>
