<?xml version="1.0" encoding="iso-8859-1"?>
<!-- Generator: Adobe Illustrator 19.0.0, SVG Export Plug-In . SVG Version: 6.00 Build 0)  -->
<svg xmlns="http://www.w3.org/2000/svg" xmlns:xlink="http://www.w3.org/1999/xlink" version="1.1" id="Layer_1" x="0px" y="0px" viewBox="0 0 512 512" style="enable-background:new 0 0 512 512;" xml:space="preserve">
<path style="fill:#FFFFFF;" d="M104.796,4h302.4c17.976,0,32.544,14.568,32.544,32.544l0,0v438.912  c0,17.976-14.568,32.544-32.544,32.544l0,0h-302.4c-17.968,0-32.536-14.568-32.536-32.536l0,0V36.544  C72.26,18.576,86.828,4.008,104.796,4z"/>
<path style="fill:#C7D5DD;" d="M407.204,8c15.76,0.016,28.528,12.784,28.544,28.544v438.912  c-0.016,15.76-12.784,28.528-28.544,28.544h-302.4c-15.76-0.016-28.528-12.784-28.544-28.544V36.544  C76.276,20.784,89.044,8.016,104.796,8H407.204 M407.204,0h-302.4c-20.16,0.064-36.48,16.392-36.544,36.544v438.912  c0.056,20.152,16.384,36.48,36.536,36.544h302.4c20.16-0.056,36.488-16.384,36.544-36.544V36.544  C443.684,16.384,427.356,0.056,407.204,0z"/>
<g>
	<rect x="127.996" y="355.44" style="fill:#AAC1CE;" width="256" height="8"/>
	<rect x="127.996" y="390.928" style="fill:#AAC1CE;" width="256" height="8"/>
	<rect x="127.996" y="427.12" style="fill:#AAC1CE;" width="256" height="8"/>
</g>
<polygon style="fill:#415E72;" points="255.996,188.608 206.916,223.712 206.916,238.92 255.996,203.816 305.076,238.92   305.076,223.712 "/>
<polygon style="fill:#CFDCE5;" points="215.132,305.504 215.132,243.192 255.996,213.76 296.868,243.192 296.868,305.504 "/>
<polygon style="fill:#415E72;" points="353.708,219.064 317.412,245.016 317.412,256.264 353.708,230.304 390.004,256.264   390.004,245.016 "/>
<polygon style="fill:#AAC1CE;" points="323.492,305.504 323.492,259.424 353.708,237.664 383.932,259.424 383.932,305.504 "/>
<polygon style="fill:#415E72;" points="158.292,219.064 121.996,245.016 121.996,256.264 158.292,230.304 194.58,256.264   194.58,245.016 "/>
<polygon style="fill:#AAC1CE;" points="128.068,305.504 128.068,259.424 158.292,237.664 188.508,259.424 188.508,305.504 "/>
<g>
	<polygon style="fill:#E04F5F;" points="157.916,174.864 148.852,161.68 229.484,106.256 257.316,143.352 348.772,79.328    357.94,92.44 253.796,165.336 225.892,128.136  "/>
	<polygon style="fill:#E04F5F;" points="366.612,139.584 350.612,139.584 350.612,87.216 298.236,87.216 298.236,71.216    366.612,71.216  "/>
</g>
<g>
</g>
<g>
</g>
<g>
</g>
<g>
</g>
<g>
</g>
<g>
</g>
<g>
</g>
<g>
</g>
<g>
</g>
<g>
</g>
<g>
</g>
<g>
</g>
<g>
</g>
<g>
</g>
<g>
</g>
</svg>
