<?xml version="1.0" encoding="iso-8859-1"?>
<!-- Generator: Adobe Illustrator 19.0.0, SVG Export Plug-In . SVG Version: 6.00 Build 0)  -->
<svg xmlns="http://www.w3.org/2000/svg" xmlns:xlink="http://www.w3.org/1999/xlink" version="1.1" id="Layer_1" x="0px" y="0px" viewBox="0 0 512 512" style="enable-background:new 0 0 512 512;" xml:space="preserve">
<path style="fill:#FFFFFF;" d="M256,508C116.824,508,4,395.176,4,256S116.824,4,256,4s252,112.824,252,252  C507.84,395.112,395.112,507.84,256,508z"/>
<path style="fill:#CFDCE5;" d="M256,8c136.968,0,248,111.032,248,248S392.968,504,256,504S8,392.968,8,256  C8.152,119.096,119.096,8.152,256,8 M256,0C114.616,0,0,114.616,0,256s114.616,256,256,256s256-114.616,256-256S397.384,0,256,0z"/>
<circle style="fill:#32BEA6;" cx="256" cy="256" r="221.024"/>
<polygon style="fill:#415E72;" points="252.696,108 141.624,187.44 141.624,221.864 252.696,142.424 363.768,221.864   363.768,187.44 "/>
<polygon style="fill:#E04F5F;" points="160.216,372.552 160.216,231.528 252.696,164.936 345.176,231.528 345.176,372.552 "/>
<g>
</g>
<g>
</g>
<g>
</g>
<g>
</g>
<g>
</g>
<g>
</g>
<g>
</g>
<g>
</g>
<g>
</g>
<g>
</g>
<g>
</g>
<g>
</g>
<g>
</g>
<g>
</g>
<g>
</g>
</svg>
