<?xml version="1.0" encoding="iso-8859-1"?>
<!-- Generator: Adobe Illustrator 19.0.0, SVG Export Plug-In . SVG Version: 6.00 Build 0)  -->
<svg xmlns="http://www.w3.org/2000/svg" xmlns:xlink="http://www.w3.org/1999/xlink" version="1.1" id="Layer_1" x="0px" y="0px" viewBox="0 0 512 512" style="enable-background:new 0 0 512 512;" xml:space="preserve">
<rect x="183.976" y="357.984" style="fill:#415E72;" width="144.08" height="108.336"/>
<polygon style="fill:#333333;" points="183.976,376.72 269.688,376.72 183.976,434.624 "/>
<g>
	<path style="fill:#C7D5DD;" d="M369.52,487.28H142.496c-8.824-0.024-15.976-7.176-16-16l0,0c0.024-8.824,7.176-15.976,16-16   h227.008c8.824,0.024,15.976,7.176,16,16l0,0C385.504,480.112,378.352,487.272,369.52,487.28z"/>
	<path style="fill:#C7D5DD;" d="M480,376.72H32c-17.648-0.056-31.944-14.352-32-32v-288c0.056-17.648,14.352-31.944,32-32h448   c17.648,0.056,31.944,14.352,32,32v288C511.944,362.368,497.648,376.664,480,376.72z"/>
</g>
<rect x="21.968" y="46.656" style="fill:#FFFFFF;" width="468.08" height="308.128"/>
<polygon style="fill:#415E72;" points="256,120.008 188.224,168.488 188.224,189.488 256,141.016 323.776,189.488 323.776,168.488   "/>
<polygon style="fill:#CFDCE5;" points="199.568,281.432 199.568,195.384 256,154.752 312.432,195.384 312.432,281.432 "/>
<polygon style="fill:#415E72;" points="390.928,128.072 340.808,163.912 340.808,179.448 390.928,143.6 441.048,179.448   441.048,163.912 "/>
<polygon style="fill:#AAC1CE;" points="349.2,247.44 349.2,183.808 390.928,153.76 432.656,183.808 432.656,247.44 "/>
<polygon style="fill:#415E72;" points="121.072,128.072 70.952,163.912 70.952,179.448 121.072,143.6 171.192,179.448   171.192,163.912 "/>
<polygon style="fill:#AAC1CE;" points="79.344,247.44 79.344,183.808 121.072,153.76 162.8,183.808 162.8,247.44 "/>
<g>
</g>
<g>
</g>
<g>
</g>
<g>
</g>
<g>
</g>
<g>
</g>
<g>
</g>
<g>
</g>
<g>
</g>
<g>
</g>
<g>
</g>
<g>
</g>
<g>
</g>
<g>
</g>
<g>
</g>
</svg>
