<?xml version="1.0" encoding="iso-8859-1"?>
<!-- Generator: Adobe Illustrator 19.0.0, SVG Export Plug-In . SVG Version: 6.00 Build 0)  -->
<svg xmlns="http://www.w3.org/2000/svg" xmlns:xlink="http://www.w3.org/1999/xlink" version="1.1" id="Layer_1" x="0px" y="0px" viewBox="0 0 512.024 512.024" style="enable-background:new 0 0 512.024 512.024;" xml:space="preserve">
<path style="fill:#FFFFFF;" d="M27.565,14.748h228.039c13.01-0.024,23.58,10.514,23.604,23.524c0,0.008,0,0.016,0,0.024v331.073  c0,13.01-10.554,23.564-23.564,23.564H27.557c-13.01,0-23.556-10.546-23.556-23.556l0,0V38.296  C4.009,25.294,14.555,14.748,27.565,14.748z"/>
<g>
	<path style="fill:#CFDCE5;" d="M255.644,18.749c10.794,0.016,19.539,8.754,19.563,19.547v331.081   c-0.016,10.802-8.762,19.547-19.563,19.563H27.565c-10.802-0.008-19.547-8.761-19.563-19.563V38.296   c0.024-10.794,8.77-19.531,19.563-19.547h228.039 M255.604,10.747H27.565C12.362,10.795,0.056,23.101,0,38.296v331.081   c0.04,15.203,12.362,27.525,27.565,27.565h228.039c15.203-0.04,27.525-12.362,27.565-27.565V38.296   c-0.056-15.187-12.338-27.485-27.525-27.549C255.644,10.747,255.604,10.747,255.604,10.747z"/>
	<rect x="45.056" y="280.938" style="fill:#CFDCE5;" width="193.073" height="8.001"/>
	<rect x="45.056" y="307.718" style="fill:#CFDCE5;" width="193.073" height="8.001"/>
	<rect x="45.056" y="335.003" style="fill:#CFDCE5;" width="193.073" height="8.001"/>
</g>
<rect id="SVGCleanerId_0" x="45.056" y="226.872" style="fill:#CFDCE5;" width="193.073" height="8.001"/>
<g>
	<rect x="45.056" y="253.653" style="fill:#CFDCE5;" width="193.073" height="8.001"/>
	<rect x="45.056" y="172.807" style="fill:#CFDCE5;" width="193.073" height="8.001"/>
	<rect x="45.056" y="199.588" style="fill:#CFDCE5;" width="193.073" height="8.001"/>
</g>
<g>
	<rect id="SVGCleanerId_0_1_" x="45.056" y="226.872" style="fill:#CFDCE5;" width="193.073" height="8.001"/>
</g>
<g>
	<rect x="45.056" y="118.742" style="fill:#CFDCE5;" width="193.073" height="8.001"/>
	<rect x="45.056" y="145.474" style="fill:#CFDCE5;" width="193.073" height="8.001"/>
	<rect x="45.056" y="64.66" style="fill:#CFDCE5;" width="193.073" height="8.001"/>
	<rect x="45.056" y="91.457" style="fill:#CFDCE5;" width="193.073" height="8.001"/>
</g>
<rect x="438.951" y="379.732" transform="matrix(0.7057 -0.7085 0.7085 0.7057 -180.9288 453.1051)" style="fill:#25B6D2;" width="32.005" height="129.221"/>
<ellipse style="fill:#415E72;" cx="305.092" cy="297.661" rx="159.891" ry="159.787"/>
<ellipse style="fill:#FFFFFF;" cx="305.092" cy="297.661" rx="133.103" ry="133.015"/>
<polygon style="fill:#415E72;" points="305.06,193.619 220.318,254.221 220.318,275.905 305.06,215.302 389.795,275.905   389.795,254.221 "/>
<polygon style="fill:#C7D5DD;" points="234.504,373.474 234.504,265.887 305.06,215.078 375.609,265.887 375.609,373.474 "/>
<g>
	<rect x="258.524" y="273.256" style="fill:#FFFFFF;" width="32.702" height="32.702"/>
	<rect x="318.903" y="273.256" style="fill:#FFFFFF;" width="32.702" height="32.702"/>
</g>
<g>
</g>
<g>
</g>
<g>
</g>
<g>
</g>
<g>
</g>
<g>
</g>
<g>
</g>
<g>
</g>
<g>
</g>
<g>
</g>
<g>
</g>
<g>
</g>
<g>
</g>
<g>
</g>
<g>
</g>
</svg>
