<?xml version="1.0" encoding="iso-8859-1"?>
<!-- Generator: Adobe Illustrator 19.0.0, SVG Export Plug-In . SVG Version: 6.00 Build 0)  -->
<svg xmlns="http://www.w3.org/2000/svg" xmlns:xlink="http://www.w3.org/1999/xlink" version="1.1" id="Layer_1" x="0px" y="0px" viewBox="0 0 512 512" style="enable-background:new 0 0 512 512;" xml:space="preserve">
<path style="fill:#FFFFFF;" d="M104.796,4h302.4c17.968,0,32.536,14.568,32.536,32.536l0,0v438.928  c0,17.968-14.568,32.536-32.536,32.536l0,0h-302.4c-17.976,0-32.544-14.568-32.544-32.544l0,0V36.552  C72.252,18.576,86.82,4.008,104.796,4L104.796,4z"/>
<path style="fill:#C7D5DD;" d="M407.204,8c15.76,0.016,28.528,12.784,28.544,28.544v438.912  c-0.016,15.76-12.784,28.528-28.544,28.544h-302.4c-15.76-0.016-28.528-12.784-28.544-28.544V36.544  C76.276,20.784,89.044,8.016,104.796,8H407.204 M407.204,0h-302.4c-20.16,0.064-36.48,16.392-36.544,36.544v438.912  c0.056,20.152,16.384,36.48,36.536,36.544h302.4c20.16-0.056,36.488-16.384,36.544-36.544V36.544  C443.684,16.384,427.356,0.056,407.204,0z"/>
<g>
	<polygon style="fill:#CFDCE5;" points="218.404,57.784 119.156,128.76 119.156,144.912 218.404,73.928 317.652,144.912    317.652,128.76  "/>
	<polygon style="fill:#CFDCE5;" points="135.772,273.112 135.772,147.104 218.404,87.6 301.036,147.104 301.036,273.112  "/>
</g>
<g>
	<rect x="163.892" y="155.776" style="fill:#FFFFFF;" width="38.296" height="38.296"/>
	<rect x="234.612" y="155.776" style="fill:#FFFFFF;" width="38.296" height="38.296"/>
</g>
<polyline style="fill:#FFD07D;" points="309.332,175.512 257.348,287.776 263.78,305.28 276.172,311.024 301.988,301.216   296.444,285.128 311.932,279.752 305.396,262.936 322.644,256.608 343.932,210.632 "/>
<rect x="235.338" y="249.569" transform="matrix(0.4197 -0.9077 0.9077 0.4197 -58.5577 415.5477)" style="fill:#F2B851;" width="120.724" height="8"/>
<circle style="fill:#FFD07D;" cx="340.676" cy="163.288" r="50.488"/>
<path style="fill:#F2B851;" d="M361.18,118.984c24.456,11.328,35.096,40.336,23.768,64.792s-40.336,35.096-64.792,23.768  c-24.448-11.32-35.096-40.32-23.784-64.768C307.732,118.336,336.716,107.696,361.18,118.984 M362.58,115.96  c-26.136-12.104-57.136-0.72-69.24,25.416s-0.72,57.136,25.416,69.24c26.136,12.104,57.136,0.72,69.24-25.416c0,0,0,0,0-0.008  C400.1,159.056,388.724,128.056,362.58,115.96C362.588,115.952,362.588,115.952,362.58,115.96L362.58,115.96z"/>
<circle style="fill:#FFFFFF;" cx="349.1" cy="145.12" r="12.432"/>
<path style="fill:#FFD07D;" d="M343.204,157.896c-7.072-3.272-10.152-11.656-6.88-18.72c3.272-7.072,11.656-10.152,18.72-6.88  c7.072,3.272,10.152,11.656,6.88,18.72c0,0,0,0,0,0.008C358.644,158.08,350.268,161.16,343.204,157.896z M353.604,135.328  c-5.4-2.496-11.8-0.152-14.296,5.248s-0.152,11.8,5.248,14.296s11.8,0.152,14.296-5.248  C361.34,144.224,358.988,137.832,353.604,135.328z"/>
<g>
	<rect x="127.996" y="355.44" style="fill:#AAC1CE;" width="256" height="8"/>
	<rect x="127.996" y="390.936" style="fill:#AAC1CE;" width="256" height="8"/>
	<rect x="127.996" y="427.12" style="fill:#AAC1CE;" width="256" height="8"/>
</g>
<g>
</g>
<g>
</g>
<g>
</g>
<g>
</g>
<g>
</g>
<g>
</g>
<g>
</g>
<g>
</g>
<g>
</g>
<g>
</g>
<g>
</g>
<g>
</g>
<g>
</g>
<g>
</g>
<g>
</g>
</svg>
