<?xml version="1.0" encoding="iso-8859-1"?>
<!-- Generator: Adobe Illustrator 19.0.0, SVG Export Plug-In . SVG Version: 6.00 Build 0)  -->
<svg xmlns="http://www.w3.org/2000/svg" xmlns:xlink="http://www.w3.org/1999/xlink" version="1.1" id="Layer_1" x="0px" y="0px" viewBox="0 0 512 512" style="enable-background:new 0 0 512 512;" xml:space="preserve">
<rect x="67.544" y="4" style="fill:#FFFFFF;" width="376.96" height="504"/>
<path style="fill:#C7D5DD;" d="M440.456,8v496H71.544V8H440.456 M448.456,0H63.544v512h384.912V0z"/>
<path style="fill:#32BEA6;" d="M256,56.336c-39.088,41.08-104,31.8-104,31.8v111.312c0,65.6,104,111.304,104,111.304  s104-45.712,104-111.304V88.144C360,88.144,295.088,97.416,256,56.336z"/>
<path style="fill:#415E72;" d="M256,92.952c-27.84,29.256-74.072,22.648-74.072,22.648v79.264c0,46.736,74.072,79.272,74.072,79.272  s74.072-32.552,74.072-79.264V115.6C330.072,115.6,283.84,122.208,256,92.952z"/>
<rect x="198.456" y="368.48" style="fill:#E04F5F;" width="115.28" height="8"/>
<g>
	<rect x="130.68" y="405.752" style="fill:#C1CED6;" width="250.824" height="8"/>
	<rect x="130.68" y="443.04" style="fill:#C1CED6;" width="250.824" height="8"/>
</g>
<polygon style="fill:#FFFFFF;" points="250.256,220.416 215.72,191.336 226.016,179.104 247.224,196.944 284.6,143.952   297.672,153.168 "/>
<g>
</g>
<g>
</g>
<g>
</g>
<g>
</g>
<g>
</g>
<g>
</g>
<g>
</g>
<g>
</g>
<g>
</g>
<g>
</g>
<g>
</g>
<g>
</g>
<g>
</g>
<g>
</g>
<g>
</g>
</svg>
