<?xml version="1.0" encoding="iso-8859-1"?>
<!-- Generator: Adobe Illustrator 19.0.0, SVG Export Plug-In . SVG Version: 6.00 Build 0)  -->
<svg xmlns="http://www.w3.org/2000/svg" xmlns:xlink="http://www.w3.org/1999/xlink" version="1.1" id="Layer_1" x="0px" y="0px" viewBox="0 0 512 512" style="enable-background:new 0 0 512 512;" xml:space="preserve">
<rect x="52.547" y="4" style="fill:#FFFFFF;" width="376.96" height="504"/>
<path style="fill:#C7D5DD;" d="M425.467,8v496H56.547V8H425.467 M433.467,0H48.547v512h384.92L433.467,0L433.467,0z"/>
<g>
	<polygon style="fill:#CFDCE5;" points="204.339,41.072 97.099,117.776 97.099,135.224 204.339,58.52 311.587,135.224    311.587,117.776  "/>
	<polygon style="fill:#CFDCE5;" points="115.051,273.76 115.051,137.6 204.339,73.296 293.635,137.6 293.635,273.76  "/>
</g>
<g>
	<rect x="145.435" y="146.96" style="fill:#FFFFFF;" width="41.384" height="41.384"/>
	<rect x="221.859" y="146.96" style="fill:#FFFFFF;" width="41.384" height="41.384"/>
</g>
<rect x="97.035" y="452.96" style="fill:#C1CED6;" width="288" height="8"/>
<polygon style="fill:#E2E2E2;" points="121.939,452.376 217.667,427.328 463.443,181.552 392.763,110.872 146.987,356.648 "/>
<g>
	<polyline style="fill:#415E72;" points="135.675,399.88 121.939,452.376 174.435,438.64  "/>
	
		<rect x="383.523" y="135.498" transform="matrix(0.7071 -0.7071 0.7071 0.7071 -17.2555 329.2885)" style="fill:#415E72;" width="10.672" height="99.951"/>
	
		<rect x="136.78" y="231.921" transform="matrix(0.7071 -0.7071 0.7071 0.7071 -113.6949 289.3083)" style="fill:#415E72;" width="311.197" height="99.951"/>
</g>
<rect x="373.714" y="118.768" transform="matrix(0.7071 -0.7071 0.7071 0.7071 -0.5276 336.2132)" style="fill:#E04F5F;" width="63.735" height="99.951"/>
<g style="opacity:0.25;">
	<polygon style="fill:#FFFFFF;" points="121.939,452.376 429.427,147.536 392.763,110.872 147.027,356.608  "/>
</g>
<g>
</g>
<g>
</g>
<g>
</g>
<g>
</g>
<g>
</g>
<g>
</g>
<g>
</g>
<g>
</g>
<g>
</g>
<g>
</g>
<g>
</g>
<g>
</g>
<g>
</g>
<g>
</g>
<g>
</g>
</svg>
