<?xml version="1.0" encoding="iso-8859-1"?>
<!-- Generator: Adobe Illustrator 19.0.0, SVG Export Plug-In . SVG Version: 6.00 Build 0)  -->
<svg xmlns="http://www.w3.org/2000/svg" xmlns:xlink="http://www.w3.org/1999/xlink" version="1.1" id="Layer_1" x="0px" y="0px" viewBox="0 0 512 512" style="enable-background:new 0 0 512 512;" xml:space="preserve">
<g>
	<path style="fill:#E04F5F;" d="M115.842,387.989c9.802-2.032,19.795-3.016,29.813-2.936c10.482-0.72,20.923,1.92,29.805,7.537   c7.505,4.393,12.082,12.466,12.002,21.163c-0.696,14.722-11.322,27.076-25.764,29.989v0.552   c12.138,3.345,20.371,14.618,19.867,27.204c-0.088,11.77-6.105,22.7-16.003,29.069c-10.306,7.361-25.028,10.122-43.791,10.122   c-9.602,0.176-19.203-0.44-28.708-1.832L115.842,387.989z M116.77,493.237c3.793,0.384,7.601,0.568,11.41,0.552   c16.003,0,30.725-6.401,30.725-22.996c0-13.25-11.202-18.219-24.284-18.219h-10.13L116.77,493.237z M127.812,436.748h9.93   c16.003,0,27.596-7.537,27.596-20.235c0-10.122-7.905-14.53-19.683-14.53c-3.825-0.096-7.649,0.216-11.41,0.92L127.812,436.748z"/>
	<path style="fill:#E04F5F;" d="M237.669,385.964l-13.802,72.307c-0.984,4.969-1.472,10.026-1.472,15.09   c-0.872,10.498,6.929,19.715,17.427,20.587c0.992,0.08,1.992,0.088,2.992,0.016c15.274,0,25.764-10.298,30.541-35.502   l13.842-72.499h21.523l-13.802,72.131C287.717,495.445,270.442,512,240.085,512c-23.364,0-39.006-12.146-39.006-38.27   c0.112-5.737,0.664-11.458,1.656-17.115l13.434-70.651H237.669z"/>
	<path style="fill:#E04F5F;" d="M334.66,509.976l9.754-50.96l-24.108-73.051h22.82l9.754,35.326   c2.76,10.674,4.049,16.195,5.153,21.715h0.376c3.313-5.889,7.361-12.874,12.882-22.083l22.259-34.957h25.388l-53.176,72.675   l-9.754,51.336L334.66,509.976L334.66,509.976z"/>
</g>
<polygon style="fill:#415E72;" points="253.592,0 113.458,100.232 113.458,123.027 253.592,22.804 393.725,123.027 393.725,100.232   "/>
<polygon style="fill:#25B6D2;" points="136.917,304.048 136.917,126.132 253.592,42.111 370.266,126.132 370.266,304.048 "/>
<g>
	<rect x="176.588" y="138.366" style="fill:#FFFFFF;" width="54.08" height="54.08"/>
	<rect x="276.483" y="138.366" style="fill:#FFFFFF;" width="54.08" height="54.08"/>
</g>
<g>
</g>
<g>
</g>
<g>
</g>
<g>
</g>
<g>
</g>
<g>
</g>
<g>
</g>
<g>
</g>
<g>
</g>
<g>
</g>
<g>
</g>
<g>
</g>
<g>
</g>
<g>
</g>
<g>
</g>
</svg>
